<mxfile host="app.diagrams.net" agent="Mozilla/5.0 (Macintosh; Intel Mac OS X 10_15_7) AppleWebKit/537.36 (KHTML, like Gecko) Chrome/131.0.0.0 Safari/537.36" version="25.0.3">
  <diagram name="Page-1" id="Z9sDSFdXzdwzYzmJap8X">
    <mxGraphModel dx="1434" dy="668" grid="1" gridSize="10" guides="1" tooltips="1" connect="1" arrows="1" fold="1" page="1" pageScale="1" pageWidth="827" pageHeight="1169" math="0" shadow="0">
      <root>
        <mxCell id="0" />
        <mxCell id="1" parent="0" />
        <mxCell id="w7ZzvlnF-1TlC1WAT-Qv-1" value="" style="whiteSpace=wrap;html=1;aspect=fixed;" parent="1" vertex="1">
          <mxGeometry x="189" y="300" width="450" height="450" as="geometry" />
        </mxCell>
        <mxCell id="w7ZzvlnF-1TlC1WAT-Qv-9" value="Sondes de détection&lt;br&gt;&amp;nbsp;par mouvement (SM)" style="shape=umlActor;verticalLabelPosition=bottom;verticalAlign=top;html=1;" parent="1" vertex="1">
          <mxGeometry x="90" y="400" width="30" height="60" as="geometry" />
        </mxCell>
        <mxCell id="w7ZzvlnF-1TlC1WAT-Qv-10" value="Employé" style="shape=umlActor;verticalLabelPosition=bottom;verticalAlign=top;html=1;" parent="1" vertex="1">
          <mxGeometry x="90" y="585" width="30" height="60" as="geometry" />
        </mxCell>
        <mxCell id="w7ZzvlnF-1TlC1WAT-Qv-11" value="Allumer la lumière/&lt;br&gt;ouvrir interrupteur" style="ellipse;whiteSpace=wrap;html=1;" parent="1" vertex="1">
          <mxGeometry x="314" y="610" width="200" height="90" as="geometry" />
        </mxCell>
        <mxCell id="w7ZzvlnF-1TlC1WAT-Qv-12" value="" style="endArrow=classic;html=1;rounded=0;" parent="1" source="wF4Z1d00nhysmO2h1Pw6-1" target="w7ZzvlnF-1TlC1WAT-Qv-11" edge="1">
          <mxGeometry relative="1" as="geometry">
            <mxPoint x="403.2608695652175" y="620" as="sourcePoint" />
            <mxPoint x="490" y="510" as="targetPoint" />
          </mxGeometry>
        </mxCell>
        <mxCell id="w7ZzvlnF-1TlC1WAT-Qv-13" value="inclusion" style="edgeLabel;resizable=0;html=1;;align=center;verticalAlign=middle;" parent="w7ZzvlnF-1TlC1WAT-Qv-12" connectable="0" vertex="1">
          <mxGeometry relative="1" as="geometry" />
        </mxCell>
        <mxCell id="w7ZzvlnF-1TlC1WAT-Qv-16" value="" style="endArrow=none;html=1;rounded=0;entryX=0.029;entryY=0.408;entryDx=0;entryDy=0;entryPerimeter=0;exitX=0.5;exitY=0.5;exitDx=0;exitDy=0;exitPerimeter=0;" parent="1" source="w7ZzvlnF-1TlC1WAT-Qv-9" target="wF4Z1d00nhysmO2h1Pw6-1" edge="1">
          <mxGeometry width="50" height="50" relative="1" as="geometry">
            <mxPoint x="420" y="540" as="sourcePoint" />
            <mxPoint x="470" y="490" as="targetPoint" />
          </mxGeometry>
        </mxCell>
        <mxCell id="wF4Z1d00nhysmO2h1Pw6-1" value="Detecter mouvement" style="ellipse;whiteSpace=wrap;html=1;" vertex="1" parent="1">
          <mxGeometry x="304" y="380" width="220" height="120" as="geometry" />
        </mxCell>
        <mxCell id="wF4Z1d00nhysmO2h1Pw6-2" value="" style="endArrow=classic;html=1;rounded=0;" edge="1" parent="1">
          <mxGeometry width="50" height="50" relative="1" as="geometry">
            <mxPoint x="105" y="560" as="sourcePoint" />
            <mxPoint x="105" y="510" as="targetPoint" />
          </mxGeometry>
        </mxCell>
        <mxCell id="wF4Z1d00nhysmO2h1Pw6-3" value="&lt;font style=&quot;font-size: 33px;&quot;&gt;CEM&lt;/font&gt;" style="text;html=1;align=center;verticalAlign=middle;resizable=0;points=[];autosize=1;strokeColor=none;fillColor=none;" vertex="1" parent="1">
          <mxGeometry x="370" y="240" width="100" height="50" as="geometry" />
        </mxCell>
        <mxCell id="wF4Z1d00nhysmO2h1Pw6-5" value="&lt;font style=&quot;font-size: 25px;&quot;&gt;Diagramme du cas d&#39;utilisation : Allumer la lumière&lt;/font&gt;" style="text;html=1;align=center;verticalAlign=middle;resizable=0;points=[];autosize=1;strokeColor=none;fillColor=none;" vertex="1" parent="1">
          <mxGeometry x="120" y="140" width="580" height="40" as="geometry" />
        </mxCell>
      </root>
    </mxGraphModel>
  </diagram>
</mxfile>
